<?xml version="1.0" encoding="UTF-8"?>
<svg id="Layer_1" xmlns="http://www.w3.org/2000/svg" viewBox="0 0 46.55 46.55">
  <defs>
    <style>
      .cls-1 {
        fill: #262626;
      }
    </style>
  </defs>
  <path class="cls-1" d="M23.3,46.55c12.73,0,23.25-10.55,23.25-23.27S36,0,23.27,0,0,10.57,0,23.27s10.57,23.27,23.3,23.27ZM16.55,11.13c1.38-3.49,3.28-6,5.37-6.77v7.31c-1.92-.05-3.73-.23-5.37-.54ZM24.61,4.36c2.09.77,4.01,3.28,5.37,6.77-1.64.3-3.42.49-5.37.54v-7.31ZM29.55,5.02c2.51.87,4.78,2.2,6.68,3.96-1.03.59-2.23,1.08-3.56,1.5-.84-2.18-1.92-4.03-3.12-5.46ZM10.29,8.98c1.92-1.73,4.2-3.09,6.7-3.96-1.22,1.43-2.27,3.28-3.14,5.46-1.31-.42-2.51-.91-3.56-1.5ZM34.9,21.91c-.12-3.26-.61-6.28-1.38-8.95,1.76-.54,3.3-1.22,4.62-2.02,2.48,3,4.1,6.8,4.38,10.97h-7.62ZM4.03,21.91c.28-4.17,1.88-7.97,4.38-10.97,1.29.8,2.86,1.48,4.59,2.02-.77,2.67-1.24,5.7-1.36,8.95h-7.62ZM24.61,21.91v-7.55c2.2-.07,4.29-.33,6.23-.73.7,2.51,1.17,5.32,1.29,8.27h-7.52ZM14.41,21.91c.09-2.95.56-5.77,1.29-8.27,1.92.4,4.03.66,6.21.73v7.55h-7.5ZM4.03,24.61h7.62c.09,3.3.59,6.4,1.36,9.09-1.71.54-3.26,1.2-4.55,1.99-2.53-3.05-4.15-6.87-4.43-11.09ZM14.39,24.61h7.52v7.69c-2.18.07-4.29.3-6.21.73-.73-2.53-1.2-5.41-1.31-8.41ZM24.61,32.3v-7.69h7.52c-.09,3-.56,5.88-1.29,8.41-1.95-.42-4.03-.66-6.23-.73ZM33.52,33.7c.8-2.7,1.27-5.79,1.38-9.09h7.62c-.26,4.22-1.88,8.06-4.43,11.09-1.29-.77-2.84-1.45-4.57-1.99ZM16.55,35.53c1.64-.3,3.45-.49,5.37-.54v7.31c-2.09-.77-3.98-3.28-5.37-6.77ZM24.61,34.99c1.95.05,3.73.23,5.37.54-1.36,3.49-3.28,6-5.37,6.77v-7.31ZM10.36,37.64c1.03-.56,2.2-1.05,3.49-1.45.84,2.11,1.85,3.89,3.02,5.32-2.44-.84-4.64-2.18-6.52-3.87ZM32.67,36.19c1.31.4,2.48.89,3.52,1.48-1.88,1.69-4.1,3.02-6.54,3.87,1.17-1.43,2.2-3.23,3.02-5.34Z"/>
</svg>