<?xml version="1.0" encoding="UTF-8"?>
<svg xmlns="http://www.w3.org/2000/svg" xmlns:xlink="http://www.w3.org/1999/xlink" viewBox="0 0 1440 1388.09">
  <defs>
    <style>
      .cls-1 {
        fill: url(#linear-gradient-2);
      }

      .cls-2 {
        fill: url(#linear-gradient-4);
      }

      .cls-3 {
        fill: url(#linear-gradient-3);
      }

      .cls-4 {
        fill: url(#linear-gradient);
      }
    </style>
    <linearGradient id="linear-gradient" x1="0" y1="1140.59" x2="1440" y2="1140.59" gradientUnits="userSpaceOnUse">
      <stop offset=".5" stop-color="#00aeef"/>
      <stop offset=".62" stop-color="#00c8ef"/>
      <stop offset=".75" stop-color="#00dcef"/>
      <stop offset=".87" stop-color="#00e8ef"/>
      <stop offset="1" stop-color="#00ecef"/>
    </linearGradient>
    <linearGradient id="linear-gradient-2" x1="107.3" y1="447.49" x2="1547.3" y2="447.49" gradientTransform="translate(-107.3)" xlink:href="#linear-gradient"/>
    <linearGradient id="linear-gradient-3" x1="423.72" y1="309.73" x2="1250.53" y2="309.73" gradientTransform="translate(-107.3)" gradientUnits="userSpaceOnUse">
      <stop offset=".48" stop-color="#00aeef"/>
      <stop offset=".49" stop-color="#00afef"/>
      <stop offset=".61" stop-color="#00c9ef"/>
      <stop offset=".74" stop-color="#00dcef"/>
      <stop offset=".86" stop-color="#00e8ef"/>
      <stop offset="1" stop-color="#00ecef"/>
    </linearGradient>
    <linearGradient id="linear-gradient-4" x1="357.49" y1="646.99" x2="1099.69" y2="646.99" gradientTransform="translate(-107.3)" gradientUnits="userSpaceOnUse">
      <stop offset="0" stop-color="#00aeef"/>
      <stop offset=".03" stop-color="#00aeef"/>
      <stop offset="1" stop-color="#00aeef"/>
    </linearGradient>
  </defs>
  <g id="text">
    <g>
      <path class="cls-4" d="M96.85,918.56v462.7H0v-462.7h96.85Z"/>
      <path class="cls-4" d="M275.62,1180.34v200.92h-95.26v-347.18h89.86l1.59,86.64h-5.72c9.31-28.98,23.44-51.39,42.39-67.23,18.94-15.84,43.45-23.76,73.51-23.76,24.56,0,45.99,5.23,64.3,15.68,18.31,10.46,32.49,25.46,42.55,45.03,10.05,19.56,15.08,42.91,15.08,70.03v220.79h-95.26v-204.64c0-21.53-5.67-38.4-16.99-50.62-11.33-12.21-27.04-18.32-47.15-18.32-13.34,0-25.24,2.85-35.72,8.54-10.48,5.7-18.63,13.93-24.45,24.69-5.82,10.77-8.73,23.91-8.73,39.44Z"/>
      <path class="cls-4" d="M674.12,1381.26l-130.82-347.18h101.29l59.7,180.11c7.19,22.57,13.49,45.34,18.89,68.32,5.4,22.98,10.95,46.79,16.67,71.42h-20.32c5.5-24.63,10.9-48.44,16.19-71.42,5.29-22.98,11.53-45.75,18.74-68.32l59.06-180.11h100.02l-131.14,347.18h-108.28Z"/>
      <path class="cls-4" d="M1011.65,988.74c-14.4,0-26.67-4.66-36.83-13.97-10.16-9.32-15.24-20.6-15.24-33.85s5.08-24.53,15.24-33.85c10.16-9.32,22.44-13.97,36.83-13.97s26.72,4.66,36.99,13.97c10.26,9.32,15.4,20.6,15.4,33.85s-5.14,24.53-15.4,33.85c-10.27,9.32-22.6,13.97-36.99,13.97ZM964.02,1381.26v-347.18h95.26v347.18h-95.26Z"/>
      <path class="cls-4" d="M1281.23,1388.09c-28.58,0-53.88-3.99-75.89-11.96-22.02-7.96-40.01-19.56-53.98-34.78-13.97-15.22-22.97-33.59-26.99-55.12l88.59-14.9c4.65,16.15,12.8,28.26,24.45,36.33,11.64,8.07,27.2,12.11,46.68,12.11,18.21,0,32.55-3.36,43.03-10.09,10.48-6.73,15.72-15.26,15.72-25.62,0-9.11-3.76-16.56-11.27-22.36-7.52-5.79-19-10.25-34.45-13.35l-61.28-12.42c-34.29-6.83-59.91-18.48-76.84-34.93-16.94-16.46-25.4-37.62-25.4-63.51,0-22.36,6.24-41.56,18.74-57.61,12.49-16.04,29.85-28.41,52.07-37.11,22.23-8.69,48.37-13.04,78.43-13.04,27.94,0,52.18,3.78,72.72,11.34,20.53,7.56,37.15,18.27,49.85,32.14,12.7,13.87,21.17,30.23,25.4,49.07l-84.46,14.6c-3.6-11.8-10.53-21.48-20.8-29.04-10.27-7.56-24.08-11.34-41.44-11.34-15.67,0-28.79,3.21-39.37,9.63-10.59,6.42-15.88,15.01-15.88,25.77,0,8.7,3.44,16.05,10.32,22.05,6.88,6.01,18.68,10.67,35.41,13.97l63.82,12.42c34.29,6.83,59.8,17.96,76.53,33.38,16.72,15.43,25.09,35.56,25.09,60.4,0,22.78-6.78,42.7-20.32,59.78-13.55,17.08-32.23,30.39-56.04,39.91-23.82,9.52-51.28,14.29-82.4,14.29Z"/>
    </g>
  </g>
  <g id="planet">
    <g>
      <path class="cls-1" d="M1169.43,505.61c-1.26,6.68-2.7,13.33-4.28,19.99,97.69,67.48,152.75,120.76,141.39,143.25-10.96,21.67-81.63,10.64-187.4-24.76-108.4-36.29-253.62-98.18-409.17-176.72-177.29-89.52-329.25-181.1-421.81-251-67.93-51.28-103.89-90.88-94.52-109.46,9.77-19.37,67.26-12.64,154.85,14.27,4.3-5.29,8.73-10.46,13.23-15.51C169.8,45.08,31.12,33.63,4.55,86.24c-27.26,53.98,69.73,162.79,240.29,284.97,106.89,76.58,242.67,158.41,394.87,235.27,134.25,67.78,263.99,122.97,378.55,162.87,222.65,77.57,387.92,97.34,417.18,39.38,28.6-56.62-79.58-173.65-266.02-303.12Z"/>
      <g>
        <path class="cls-3" d="M316.42,212.67c96.18,70.1,241.32,155.66,402.47,237.03,142.28,71.84,279.68,131.71,389.42,169.77,90.3-214.34.39-465.04-210.37-571.46-208.87-105.46-461.32-31.28-581.52,164.66Z"/>
        <path class="cls-2" d="M630.8,624.15c-139.89-70.64-270.14-147.54-378.29-223.27-18.34,178.74,73.02,358.39,242.97,444.2,167.92,84.79,364.02,53.46,496.91-63.9-113.72-40.71-238.26-94.77-361.6-157.04Z"/>
      </g>
    </g>
  </g>
</svg>