<?xml version="1.0" encoding="UTF-8"?>
<svg id="Layer_2" xmlns="http://www.w3.org/2000/svg" viewBox="0 0 512 512">
  <defs>
    <style>
      .cls-1 {
        fill: #fff;
      }
    </style>
  </defs>
  <path class="cls-1" d="M334.05,256l161.78-161.78c21.55-21.55,21.55-56.5,0-78.05h0c-21.55-21.55-56.5-21.55-78.05,0l-161.78,161.78L94.22,16.17c-21.55-21.55-56.5-21.55-78.05,0h0c-21.55,21.55-21.55,56.5,0,78.05l161.78,161.78L16.17,417.78c-21.55,21.55-21.55,56.5,0,78.05h0c21.55,21.55,56.5,21.55,78.05,0l161.78-161.78,161.78,161.78c21.55,21.55,56.5,21.55,78.05,0h0c21.55-21.55,21.55-56.5,0-78.05l-161.78-161.78Z"/>
</svg>