<?xml version="1.0" encoding="UTF-8"?>
<svg id="Layer_1" xmlns="http://www.w3.org/2000/svg" viewBox="0 0 14 64">
  <defs>
    <style>
      .cls-1 {
        fill: #fff;
      }
    </style>
  </defs>
  <path class="cls-1" d="M0,7c0-1.8.8-3.7,2.1-5C3.4.7,5.2,0,7,0s3.6.8,5,2c1.3,1.3,2,3.1,2,5,0,1.8-.8,3.6-2,4.9-1.3,1.3-3.1,2.1-5,2.1-1.8,0-3.6-.8-4.9-2.1S0,8.8,0,7ZM2.1,36.9c1.3,1.3,3.1,2.1,4.9,2.1s3.6-.8,5-2.1c1.3-1.3,2-3.1,2-4.9s-.8-3.7-2-5c-1.3-1.3-3.1-2-5-2-1.8,0-3.6.8-4.9,2-1.3,1.3-2.1,3.1-2.1,5,0,1.8.8,3.6,2.1,4.9ZM2.1,61.9c1.3,1.3,3.1,2.1,4.9,2.1s3.6-.8,5-2.1c1.3-1.3,2-3.1,2-4.9s-.8-3.7-2-5c-1.3-1.3-3.1-2-5-2-1.8,0-3.6.8-4.9,2-1.3,1.3-2.1,3.1-2.1,5,0,1.8.8,3.6,2.1,4.9Z"/>
</svg>