<?xml version="1.0" encoding="UTF-8"?>
<svg id="Layer_1" xmlns="http://www.w3.org/2000/svg" viewBox="0 0 24 24">
  <defs>
    <style>
      .cls-1 {
        fill: #d43939;
      }

      .cls-2 {
        fill: rgba(255, 255, 255, 0);
      }
    </style>
  </defs>
  <path class="cls-2" d="M24,24H0V0h24v24Z"/>
  <path class="cls-1" d="M12,2C6.48,2,2,6.48,2,12s4.48,10,10,10,10-4.48,10-10S17.52,2,12,2ZM12,20c-4.42,0-8-3.58-8-8S7.58,4,12,4s8,3.58,8,8-3.58,8-8,8Z"/>
  <path class="cls-1" d="M13.55,12l3.22-3.22c.43-.43.43-1.12,0-1.55h0c-.43-.43-1.12-.43-1.55,0l-3.22,3.22-3.22-3.22c-.43-.43-1.12-.43-1.55,0h0c-.43.43-.43,1.12,0,1.55l3.22,3.22-3.22,3.22c-.43.43-.43,1.12,0,1.55h0c.43.43,1.12.43,1.55,0l3.22-3.22,3.22,3.22c.43.43,1.12.43,1.55,0h0c.43-.43.43-1.12,0-1.55l-3.22-3.22h0Z"/>
</svg>