<?xml version="1.0" encoding="UTF-8"?>
<svg xmlns="http://www.w3.org/2000/svg" version="1.1" viewBox="0 0 24 24">
  <defs>
    <style>
      .cls-1 {
        fill: #231f20;
      }

      .cls-2 {
        fill: #22b700;
      }

      .cls-3 {
        display: none;
      }

      .cls-4 {
        fill: #fff;
        fill-opacity: 0;
      }
    </style>
  </defs>
  <!-- Generator: Adobe Illustrator 28.7.7, SVG Export Plug-In . SVG Version: 1.2.0 Build 194)  -->
  <g>
    <g id="Layer_1">
      <g class="cls-3">
        <path class="cls-1" d="M12,2C6.5,2,2,6.5,2,12s4.5,10,10,10,10-4.5,10-10S17.5,2,12,2ZM12,20c-4.4,0-8-3.6-8-8S7.6,4,12,4s8,3.6,8,8-3.6,8-8,8Z"/>
        <circle class="cls-1" cx="12" cy="8" r="1"/>
        <path class="cls-1" d="M12,10c-.6,0-1,.4-1,1v5c0,.6.4,1,1,1s1-.4,1-1v-5c0-.6-.4-1-1-1Z"/>
      </g>
      <path class="cls-4" d="M24,24H0V0h24v24Z"/>
      <path class="cls-2" d="M12,2C6.5,2,2,6.5,2,12s4.5,10,10,10,10-4.5,10-10S17.5,2,12,2ZM12,20c-4.4,0-8-3.6-8-8S7.6,4,12,4s8,3.6,8,8-3.6,8-8,8Z"/>
      <path class="cls-2" d="M10.1,16.3l-3.9-3.9c-.2-.2-.2-.6,0-.9l.9-.9c.2-.2.6-.2.9,0l2.6,2.6,5.7-5.7c.2-.2.6-.2.9,0l.9.9c.2.2.2.6,0,.9l-6.9,6.9c-.2.2-.6.2-.9,0h0Z"/>
    </g>
  </g>
</svg>